<mxfile host="app.diagrams.net" modified="2024-01-11T16:57:15.585Z" agent="Mozilla/5.0 (Macintosh; Intel Mac OS X 10_15_7) AppleWebKit/605.1.15 (KHTML, like Gecko) Version/16.4 Safari/605.1.15" etag="vCCRTt8hygc_ANur89pq" version="22.1.18" type="github">
  <diagram id="prtHgNgQTEPvFCAcTncT" name="Page-1">
    <mxGraphModel dx="954" dy="647" grid="0" gridSize="10" guides="1" tooltips="1" connect="1" arrows="1" fold="1" page="1" pageScale="1" pageWidth="827" pageHeight="1169" math="0" shadow="0">
      <root>
        <mxCell id="0" />
        <mxCell id="1" parent="0" />
        <mxCell id="dNxyNK7c78bLwvsdeMH5-19" value="拍立得" style="swimlane;html=1;childLayout=stackLayout;resizeParent=1;resizeParentMax=0;horizontal=0;startSize=30;horizontalStack=0;labelBackgroundColor=none;fillColor=#F2CC8F;strokeColor=#E07A5F;fontColor=#393C56;rounded=1;strokeWidth=2;fontSize=15;" parent="1" vertex="1">
          <mxGeometry x="114" y="114" width="540" height="360" as="geometry" />
        </mxCell>
        <mxCell id="dNxyNK7c78bLwvsdeMH5-20" value="视觉层" style="swimlane;html=1;startSize=31;horizontal=0;labelBackgroundColor=none;fillColor=#F2CC8F;strokeColor=#E07A5F;fontColor=#393C56;rounded=1;strokeWidth=2;fontSize=15;" parent="dNxyNK7c78bLwvsdeMH5-19" vertex="1">
          <mxGeometry x="30" width="510" height="120" as="geometry">
            <mxRectangle x="20" width="430" height="26" as="alternateBounds" />
          </mxGeometry>
        </mxCell>
        <mxCell id="dNxyNK7c78bLwvsdeMH5-26" value="USB&lt;br style=&quot;font-size: 15px;&quot;&gt;摄像头" style="rounded=1;whiteSpace=wrap;html=1;fontFamily=Helvetica;fontSize=15;fontColor=#393C56;align=center;labelBackgroundColor=none;fillColor=#F2CC8F;strokeColor=#E07A5F;strokeWidth=2;" parent="dNxyNK7c78bLwvsdeMH5-20" vertex="1">
          <mxGeometry x="207" y="30" width="80" height="60" as="geometry" />
        </mxCell>
        <mxCell id="FIXmOVKPrZ--MnCJGnXN-17" value="HDMI&lt;br style=&quot;font-size: 15px;&quot;&gt;显示器" style="rounded=1;whiteSpace=wrap;html=1;fontFamily=Helvetica;fontSize=15;fontColor=#393C56;align=center;labelBackgroundColor=none;fillColor=#F2CC8F;strokeColor=#E07A5F;strokeWidth=2;" vertex="1" parent="dNxyNK7c78bLwvsdeMH5-20">
          <mxGeometry x="60" y="30" width="80" height="60" as="geometry" />
        </mxCell>
        <mxCell id="dNxyNK7c78bLwvsdeMH5-21" value="控制层" style="swimlane;html=1;startSize=31;horizontal=0;labelBackgroundColor=none;fillColor=#F2CC8F;strokeColor=#E07A5F;fontColor=#393C56;rounded=1;strokeWidth=2;fontSize=15;" parent="dNxyNK7c78bLwvsdeMH5-19" vertex="1">
          <mxGeometry x="30" y="120" width="510" height="120" as="geometry" />
        </mxCell>
        <mxCell id="dNxyNK7c78bLwvsdeMH5-32" value="电源" style="ellipse;whiteSpace=wrap;html=1;labelBackgroundColor=none;fillColor=#F2CC8F;strokeColor=#E07A5F;fontColor=#393C56;rounded=1;strokeWidth=2;fontSize=15;" parent="dNxyNK7c78bLwvsdeMH5-21" vertex="1">
          <mxGeometry x="80" y="40" width="40" height="40" as="geometry" />
        </mxCell>
        <mxCell id="FIXmOVKPrZ--MnCJGnXN-36" style="edgeStyle=orthogonalEdgeStyle;rounded=1;orthogonalLoop=1;jettySize=auto;html=1;exitX=1;exitY=0.5;exitDx=0;exitDy=0;entryX=0;entryY=0.5;entryDx=0;entryDy=0;" edge="1" parent="dNxyNK7c78bLwvsdeMH5-21" source="dNxyNK7c78bLwvsdeMH5-24" target="FIXmOVKPrZ--MnCJGnXN-32">
          <mxGeometry relative="1" as="geometry" />
        </mxCell>
        <mxCell id="FIXmOVKPrZ--MnCJGnXN-37" value="读取" style="edgeLabel;html=1;align=center;verticalAlign=middle;resizable=0;points=[];" vertex="1" connectable="0" parent="FIXmOVKPrZ--MnCJGnXN-36">
          <mxGeometry x="-0.0725" y="-1" relative="1" as="geometry">
            <mxPoint as="offset" />
          </mxGeometry>
        </mxCell>
        <mxCell id="dNxyNK7c78bLwvsdeMH5-24" value="树莓派" style="rounded=1;whiteSpace=wrap;html=1;fontFamily=Helvetica;fontSize=15;fontColor=#393C56;align=center;labelBackgroundColor=none;fillColor=#F2CC8F;strokeColor=#E07A5F;strokeWidth=2;" parent="dNxyNK7c78bLwvsdeMH5-21" vertex="1">
          <mxGeometry x="207" y="30" width="80" height="60" as="geometry" />
        </mxCell>
        <mxCell id="FIXmOVKPrZ--MnCJGnXN-16" style="edgeStyle=orthogonalEdgeStyle;rounded=1;orthogonalLoop=1;jettySize=auto;html=1;fontSize=15;" edge="1" parent="dNxyNK7c78bLwvsdeMH5-21" source="dNxyNK7c78bLwvsdeMH5-32" target="dNxyNK7c78bLwvsdeMH5-24">
          <mxGeometry relative="1" as="geometry" />
        </mxCell>
        <mxCell id="FIXmOVKPrZ--MnCJGnXN-46" value="供电" style="edgeLabel;html=1;align=center;verticalAlign=middle;resizable=0;points=[];" vertex="1" connectable="0" parent="FIXmOVKPrZ--MnCJGnXN-16">
          <mxGeometry x="-0.1034" y="2" relative="1" as="geometry">
            <mxPoint x="-1" y="2" as="offset" />
          </mxGeometry>
        </mxCell>
        <mxCell id="FIXmOVKPrZ--MnCJGnXN-32" value="按键" style="rounded=1;whiteSpace=wrap;html=1;fontFamily=Helvetica;fontSize=15;fontColor=#393C56;align=center;labelBackgroundColor=none;fillColor=#F2CC8F;strokeColor=#E07A5F;strokeWidth=2;" vertex="1" parent="dNxyNK7c78bLwvsdeMH5-21">
          <mxGeometry x="356" y="30" width="80" height="60" as="geometry" />
        </mxCell>
        <mxCell id="dNxyNK7c78bLwvsdeMH5-22" value="打印层" style="swimlane;html=1;startSize=31;horizontal=0;labelBackgroundColor=none;fillColor=#F2CC8F;strokeColor=#E07A5F;fontColor=#393C56;rounded=1;strokeWidth=2;fontSize=15;" parent="dNxyNK7c78bLwvsdeMH5-19" vertex="1">
          <mxGeometry x="30" y="240" width="510" height="120" as="geometry" />
        </mxCell>
        <mxCell id="FIXmOVKPrZ--MnCJGnXN-19" value="热敏&lt;br style=&quot;font-size: 15px;&quot;&gt;打印机" style="rounded=1;whiteSpace=wrap;html=1;fontFamily=Helvetica;fontSize=15;fontColor=#393C56;align=center;labelBackgroundColor=none;fillColor=#F2CC8F;strokeColor=#E07A5F;strokeWidth=2;" vertex="1" parent="dNxyNK7c78bLwvsdeMH5-22">
          <mxGeometry x="207" y="30" width="80" height="60" as="geometry" />
        </mxCell>
        <mxCell id="FIXmOVKPrZ--MnCJGnXN-23" style="edgeStyle=orthogonalEdgeStyle;rounded=1;orthogonalLoop=1;jettySize=auto;html=1;exitX=0.5;exitY=0;exitDx=0;exitDy=0;entryX=0.5;entryY=1;entryDx=0;entryDy=0;fontSize=15;" edge="1" parent="dNxyNK7c78bLwvsdeMH5-19" source="dNxyNK7c78bLwvsdeMH5-32" target="FIXmOVKPrZ--MnCJGnXN-17">
          <mxGeometry relative="1" as="geometry" />
        </mxCell>
        <mxCell id="FIXmOVKPrZ--MnCJGnXN-47" value="供电" style="edgeLabel;html=1;align=center;verticalAlign=middle;resizable=0;points=[];" vertex="1" connectable="0" parent="FIXmOVKPrZ--MnCJGnXN-23">
          <mxGeometry x="-0.6" y="-1" relative="1" as="geometry">
            <mxPoint x="-1" y="-2" as="offset" />
          </mxGeometry>
        </mxCell>
        <mxCell id="FIXmOVKPrZ--MnCJGnXN-25" style="edgeStyle=orthogonalEdgeStyle;rounded=1;orthogonalLoop=1;jettySize=auto;html=1;exitX=0.5;exitY=0;exitDx=0;exitDy=0;entryX=0.5;entryY=1;entryDx=0;entryDy=0;fontSize=15;" edge="1" parent="dNxyNK7c78bLwvsdeMH5-19" source="dNxyNK7c78bLwvsdeMH5-24" target="FIXmOVKPrZ--MnCJGnXN-17">
          <mxGeometry relative="1" as="geometry">
            <Array as="points">
              <mxPoint x="267" y="132" />
              <mxPoint x="120" y="132" />
            </Array>
          </mxGeometry>
        </mxCell>
        <mxCell id="FIXmOVKPrZ--MnCJGnXN-45" value="数据" style="edgeLabel;html=1;align=center;verticalAlign=middle;resizable=0;points=[];" vertex="1" connectable="0" parent="FIXmOVKPrZ--MnCJGnXN-25">
          <mxGeometry x="-0.0338" y="2" relative="1" as="geometry">
            <mxPoint x="8" y="-2" as="offset" />
          </mxGeometry>
        </mxCell>
        <mxCell id="FIXmOVKPrZ--MnCJGnXN-30" style="edgeStyle=orthogonalEdgeStyle;rounded=1;orthogonalLoop=1;jettySize=auto;html=1;exitX=0.25;exitY=1;exitDx=0;exitDy=0;entryX=0.25;entryY=0;entryDx=0;entryDy=0;fontSize=15;" edge="1" parent="dNxyNK7c78bLwvsdeMH5-19" source="dNxyNK7c78bLwvsdeMH5-24" target="FIXmOVKPrZ--MnCJGnXN-19">
          <mxGeometry relative="1" as="geometry" />
        </mxCell>
        <mxCell id="FIXmOVKPrZ--MnCJGnXN-40" value="供电" style="edgeLabel;html=1;align=center;verticalAlign=middle;resizable=0;points=[];" vertex="1" connectable="0" parent="FIXmOVKPrZ--MnCJGnXN-30">
          <mxGeometry x="-0.4" y="1" relative="1" as="geometry">
            <mxPoint y="12" as="offset" />
          </mxGeometry>
        </mxCell>
        <mxCell id="FIXmOVKPrZ--MnCJGnXN-31" style="edgeStyle=orthogonalEdgeStyle;rounded=1;orthogonalLoop=1;jettySize=auto;html=1;exitX=0.75;exitY=1;exitDx=0;exitDy=0;entryX=0.75;entryY=0;entryDx=0;entryDy=0;fontSize=15;" edge="1" parent="dNxyNK7c78bLwvsdeMH5-19" source="dNxyNK7c78bLwvsdeMH5-24" target="FIXmOVKPrZ--MnCJGnXN-19">
          <mxGeometry relative="1" as="geometry" />
        </mxCell>
        <mxCell id="FIXmOVKPrZ--MnCJGnXN-41" value="数据" style="edgeLabel;html=1;align=center;verticalAlign=middle;resizable=0;points=[];" vertex="1" connectable="0" parent="FIXmOVKPrZ--MnCJGnXN-31">
          <mxGeometry x="-0.5333" y="-1" relative="1" as="geometry">
            <mxPoint y="16" as="offset" />
          </mxGeometry>
        </mxCell>
        <mxCell id="FIXmOVKPrZ--MnCJGnXN-34" style="edgeStyle=orthogonalEdgeStyle;rounded=1;orthogonalLoop=1;jettySize=auto;html=1;exitX=0.5;exitY=0;exitDx=0;exitDy=0;entryX=1;entryY=0.5;entryDx=0;entryDy=0;fontSize=15;" edge="1" parent="dNxyNK7c78bLwvsdeMH5-19" source="FIXmOVKPrZ--MnCJGnXN-32" target="dNxyNK7c78bLwvsdeMH5-26">
          <mxGeometry relative="1" as="geometry" />
        </mxCell>
        <mxCell id="FIXmOVKPrZ--MnCJGnXN-38" value="控制" style="edgeLabel;html=1;align=center;verticalAlign=middle;resizable=0;points=[];" vertex="1" connectable="0" parent="FIXmOVKPrZ--MnCJGnXN-34">
          <mxGeometry x="-0.3266" y="-1" relative="1" as="geometry">
            <mxPoint x="-1" y="7" as="offset" />
          </mxGeometry>
        </mxCell>
        <mxCell id="FIXmOVKPrZ--MnCJGnXN-35" style="edgeStyle=orthogonalEdgeStyle;rounded=1;orthogonalLoop=1;jettySize=auto;html=1;exitX=0.5;exitY=1;exitDx=0;exitDy=0;entryX=1;entryY=0.5;entryDx=0;entryDy=0;fontSize=15;" edge="1" parent="dNxyNK7c78bLwvsdeMH5-19" source="FIXmOVKPrZ--MnCJGnXN-32" target="FIXmOVKPrZ--MnCJGnXN-19">
          <mxGeometry relative="1" as="geometry" />
        </mxCell>
        <mxCell id="FIXmOVKPrZ--MnCJGnXN-39" value="控制" style="edgeLabel;html=1;align=center;verticalAlign=middle;resizable=0;points=[];" vertex="1" connectable="0" parent="FIXmOVKPrZ--MnCJGnXN-35">
          <mxGeometry x="-0.3568" y="2" relative="1" as="geometry">
            <mxPoint x="-2" y="-4" as="offset" />
          </mxGeometry>
        </mxCell>
        <mxCell id="FIXmOVKPrZ--MnCJGnXN-43" style="edgeStyle=orthogonalEdgeStyle;rounded=1;orthogonalLoop=1;jettySize=auto;html=1;exitX=0.5;exitY=1;exitDx=0;exitDy=0;entryX=0.5;entryY=0;entryDx=0;entryDy=0;" edge="1" parent="dNxyNK7c78bLwvsdeMH5-19" source="dNxyNK7c78bLwvsdeMH5-26" target="dNxyNK7c78bLwvsdeMH5-24">
          <mxGeometry relative="1" as="geometry" />
        </mxCell>
        <mxCell id="FIXmOVKPrZ--MnCJGnXN-44" value="数据" style="edgeLabel;html=1;align=center;verticalAlign=middle;resizable=0;points=[];" vertex="1" connectable="0" parent="FIXmOVKPrZ--MnCJGnXN-43">
          <mxGeometry x="-0.3667" y="1" relative="1" as="geometry">
            <mxPoint x="-1" y="11" as="offset" />
          </mxGeometry>
        </mxCell>
      </root>
    </mxGraphModel>
  </diagram>
</mxfile>
